General
Complete name                    : Enemy.of.The.State.DualAudio{hindi-eng}DVDRip.aaaevilacharya
Format                           : Matroska
File size                        : 710 MiB
Duration                         : 2h 6mn
Overall bit rate                 : 781 Kbps
Movie name                       : aaaevilacharya
Encoded date                     : UTC 2010-11-13 00:59:37


Video
ID                               : 1
Format                           : AVC
Format/Info                      : Advanced Video Codec
Format profile                   : High@L4.1
Format settings, CABAC           : Yes
Format settings, ReFrames        : 3 frames
Muxing mode                      : Container profile=Unknown@4.1
Codec ID                         : V_MPEG4/ISO/AVC
Duration                         : 2h 6mn
Bit rate                         : 637 Kbps
Width                            : 718 pixels
Height                           : 272 pixels
Display aspect ratio             : 2.045
Original display aspect ratio    : 2.640
Frame rate                       : 23.976 fps
Color space                      : YUV
Chroma subsampling               : 4:2:0
Bit depth                        : 8 bits
Scan type                        : Progressive
Bits/(Pixel*Frame)               : 0.136
Stream size                      : 565 MiB (80%)
Title                            : aaaevilacharya


Language                         : Hindi

Audio #1
ID                               : 2
Format                           : MPEG Audio
Format version                   : Version 1
Format profile                   : Layer 3
Mode                             : Joint stereo
Mode extension                   : MS Stereo
Codec ID                         : A_MPEG/L3
Codec ID/Hint                    : MP3
Duration                         : 2h 6mn
Bit rate mode                    : Constant
Bit rate                         : 64.0 Kbps
Channel(s)                       : 2 channels
Sampling rate                    : 32.0 KHz
Stream size                      : 58.1 MiB (8%)


Language                         : english


Audio #2
ID                               : 3
Format                           : MPEG Audio
Format version                   : Version 1
Format profile                   : Layer 3
Mode                             : Joint stereo
Mode extension                   : MS Stereo
Codec ID                         : A_MPEG/L3
Codec ID/Hint                    : MP3
Duration                         : 2h 6mn
Bit rate mode                    : Constant
Bit rate                         : 80.0 Kbps
Channel(s)                       : 2 channels
Sampling rate                    : 32.0 KHz
Stream size                      : 72.6 MiB (10%)

SCREENSHOTS
 
http://img98.imageshack.us/img98/6176/vlcsnap2010111313h00m23.png
 
http://img543.imageshack.us/img543/6458/vlcsnap2010111312h58m14.png
 
http://img683.imageshack.us/img683/1399/vlcsnap2010111312h58m29.png
 
http://img576.imageshack.us/img576/1674/vlcsnap2010111312h58m52.png
 
http://img257.imageshack.us/img257/8547/vlcsnap2010111312h59m23.png
 
http://img177.imageshack.us/img177/8448/vlcsnap2010111312h59m33.png
 
http://img529.imageshack.us/img529/8864/vlcsnap2010111313h00m08.png
